G75*
%MOIN*%
%OFA0B0*%
%FSLAX24Y24*%
%IPPOS*%
%LPD*%
%AMOC8*
5,1,8,0,0,1.08239X$1,22.5*
%
%ADD10C,0.0000*%
%ADD11C,0.2049*%
%ADD12C,0.2482*%
%ADD13C,0.3033*%
%ADD14C,0.1464*%
%ADD15C,0.4023*%
%ADD16C,0.2980*%
D10*
X000100Y000100D02*
X077600Y000100D01*
X077600Y023220D01*
X000100Y023220D01*
X000100Y000100D01*
X004319Y004289D02*
X004321Y004358D01*
X004327Y004427D01*
X004337Y004496D01*
X004351Y004563D01*
X004369Y004630D01*
X004390Y004696D01*
X004415Y004761D01*
X004444Y004823D01*
X004477Y004884D01*
X004513Y004944D01*
X004552Y005001D01*
X004595Y005055D01*
X004641Y005107D01*
X004689Y005156D01*
X004741Y005203D01*
X004795Y005246D01*
X004851Y005286D01*
X004910Y005323D01*
X004970Y005357D01*
X005033Y005387D01*
X005097Y005413D01*
X005162Y005435D01*
X005229Y005454D01*
X005296Y005469D01*
X005365Y005480D01*
X005434Y005487D01*
X005503Y005490D01*
X005572Y005489D01*
X005641Y005484D01*
X005710Y005475D01*
X005778Y005462D01*
X005845Y005445D01*
X005911Y005425D01*
X005976Y005400D01*
X006039Y005372D01*
X006100Y005340D01*
X006160Y005305D01*
X006218Y005267D01*
X006273Y005225D01*
X006325Y005180D01*
X006375Y005132D01*
X006422Y005081D01*
X006467Y005028D01*
X006508Y004972D01*
X006545Y004914D01*
X006580Y004854D01*
X006610Y004792D01*
X006638Y004729D01*
X006661Y004663D01*
X006681Y004597D01*
X006697Y004530D01*
X006709Y004461D01*
X006717Y004393D01*
X006721Y004324D01*
X006721Y004254D01*
X006717Y004185D01*
X006709Y004117D01*
X006697Y004048D01*
X006681Y003981D01*
X006661Y003915D01*
X006638Y003849D01*
X006610Y003786D01*
X006580Y003724D01*
X006545Y003664D01*
X006508Y003606D01*
X006467Y003550D01*
X006422Y003497D01*
X006375Y003446D01*
X006325Y003398D01*
X006273Y003353D01*
X006218Y003311D01*
X006160Y003273D01*
X006100Y003238D01*
X006039Y003206D01*
X005976Y003178D01*
X005911Y003153D01*
X005845Y003133D01*
X005778Y003116D01*
X005710Y003103D01*
X005641Y003094D01*
X005572Y003089D01*
X005503Y003088D01*
X005434Y003091D01*
X005365Y003098D01*
X005296Y003109D01*
X005229Y003124D01*
X005162Y003143D01*
X005097Y003165D01*
X005033Y003191D01*
X004970Y003221D01*
X004910Y003255D01*
X004851Y003292D01*
X004795Y003332D01*
X004741Y003375D01*
X004689Y003422D01*
X004641Y003471D01*
X004595Y003523D01*
X004552Y003577D01*
X004513Y003634D01*
X004477Y003694D01*
X004444Y003755D01*
X004415Y003817D01*
X004390Y003882D01*
X004369Y003948D01*
X004351Y004015D01*
X004337Y004082D01*
X004327Y004151D01*
X004321Y004220D01*
X004319Y004289D01*
X011819Y004289D02*
X011821Y004358D01*
X011827Y004427D01*
X011837Y004496D01*
X011851Y004563D01*
X011869Y004630D01*
X011890Y004696D01*
X011915Y004761D01*
X011944Y004823D01*
X011977Y004884D01*
X012013Y004944D01*
X012052Y005001D01*
X012095Y005055D01*
X012141Y005107D01*
X012189Y005156D01*
X012241Y005203D01*
X012295Y005246D01*
X012351Y005286D01*
X012410Y005323D01*
X012470Y005357D01*
X012533Y005387D01*
X012597Y005413D01*
X012662Y005435D01*
X012729Y005454D01*
X012796Y005469D01*
X012865Y005480D01*
X012934Y005487D01*
X013003Y005490D01*
X013072Y005489D01*
X013141Y005484D01*
X013210Y005475D01*
X013278Y005462D01*
X013345Y005445D01*
X013411Y005425D01*
X013476Y005400D01*
X013539Y005372D01*
X013600Y005340D01*
X013660Y005305D01*
X013718Y005267D01*
X013773Y005225D01*
X013825Y005180D01*
X013875Y005132D01*
X013922Y005081D01*
X013967Y005028D01*
X014008Y004972D01*
X014045Y004914D01*
X014080Y004854D01*
X014110Y004792D01*
X014138Y004729D01*
X014161Y004663D01*
X014181Y004597D01*
X014197Y004530D01*
X014209Y004461D01*
X014217Y004393D01*
X014221Y004324D01*
X014221Y004254D01*
X014217Y004185D01*
X014209Y004117D01*
X014197Y004048D01*
X014181Y003981D01*
X014161Y003915D01*
X014138Y003849D01*
X014110Y003786D01*
X014080Y003724D01*
X014045Y003664D01*
X014008Y003606D01*
X013967Y003550D01*
X013922Y003497D01*
X013875Y003446D01*
X013825Y003398D01*
X013773Y003353D01*
X013718Y003311D01*
X013660Y003273D01*
X013600Y003238D01*
X013539Y003206D01*
X013476Y003178D01*
X013411Y003153D01*
X013345Y003133D01*
X013278Y003116D01*
X013210Y003103D01*
X013141Y003094D01*
X013072Y003089D01*
X013003Y003088D01*
X012934Y003091D01*
X012865Y003098D01*
X012796Y003109D01*
X012729Y003124D01*
X012662Y003143D01*
X012597Y003165D01*
X012533Y003191D01*
X012470Y003221D01*
X012410Y003255D01*
X012351Y003292D01*
X012295Y003332D01*
X012241Y003375D01*
X012189Y003422D01*
X012141Y003471D01*
X012095Y003523D01*
X012052Y003577D01*
X012013Y003634D01*
X011977Y003694D01*
X011944Y003755D01*
X011915Y003817D01*
X011890Y003882D01*
X011869Y003948D01*
X011851Y004015D01*
X011837Y004082D01*
X011827Y004151D01*
X011821Y004220D01*
X011819Y004289D01*
X019319Y004289D02*
X019321Y004358D01*
X019327Y004427D01*
X019337Y004496D01*
X019351Y004563D01*
X019369Y004630D01*
X019390Y004696D01*
X019415Y004761D01*
X019444Y004823D01*
X019477Y004884D01*
X019513Y004944D01*
X019552Y005001D01*
X019595Y005055D01*
X019641Y005107D01*
X019689Y005156D01*
X019741Y005203D01*
X019795Y005246D01*
X019851Y005286D01*
X019910Y005323D01*
X019970Y005357D01*
X020033Y005387D01*
X020097Y005413D01*
X020162Y005435D01*
X020229Y005454D01*
X020296Y005469D01*
X020365Y005480D01*
X020434Y005487D01*
X020503Y005490D01*
X020572Y005489D01*
X020641Y005484D01*
X020710Y005475D01*
X020778Y005462D01*
X020845Y005445D01*
X020911Y005425D01*
X020976Y005400D01*
X021039Y005372D01*
X021100Y005340D01*
X021160Y005305D01*
X021218Y005267D01*
X021273Y005225D01*
X021325Y005180D01*
X021375Y005132D01*
X021422Y005081D01*
X021467Y005028D01*
X021508Y004972D01*
X021545Y004914D01*
X021580Y004854D01*
X021610Y004792D01*
X021638Y004729D01*
X021661Y004663D01*
X021681Y004597D01*
X021697Y004530D01*
X021709Y004461D01*
X021717Y004393D01*
X021721Y004324D01*
X021721Y004254D01*
X021717Y004185D01*
X021709Y004117D01*
X021697Y004048D01*
X021681Y003981D01*
X021661Y003915D01*
X021638Y003849D01*
X021610Y003786D01*
X021580Y003724D01*
X021545Y003664D01*
X021508Y003606D01*
X021467Y003550D01*
X021422Y003497D01*
X021375Y003446D01*
X021325Y003398D01*
X021273Y003353D01*
X021218Y003311D01*
X021160Y003273D01*
X021100Y003238D01*
X021039Y003206D01*
X020976Y003178D01*
X020911Y003153D01*
X020845Y003133D01*
X020778Y003116D01*
X020710Y003103D01*
X020641Y003094D01*
X020572Y003089D01*
X020503Y003088D01*
X020434Y003091D01*
X020365Y003098D01*
X020296Y003109D01*
X020229Y003124D01*
X020162Y003143D01*
X020097Y003165D01*
X020033Y003191D01*
X019970Y003221D01*
X019910Y003255D01*
X019851Y003292D01*
X019795Y003332D01*
X019741Y003375D01*
X019689Y003422D01*
X019641Y003471D01*
X019595Y003523D01*
X019552Y003577D01*
X019513Y003634D01*
X019477Y003694D01*
X019444Y003755D01*
X019415Y003817D01*
X019390Y003882D01*
X019369Y003948D01*
X019351Y004015D01*
X019337Y004082D01*
X019327Y004151D01*
X019321Y004220D01*
X019319Y004289D01*
X026819Y004289D02*
X026821Y004358D01*
X026827Y004427D01*
X026837Y004496D01*
X026851Y004563D01*
X026869Y004630D01*
X026890Y004696D01*
X026915Y004761D01*
X026944Y004823D01*
X026977Y004884D01*
X027013Y004944D01*
X027052Y005001D01*
X027095Y005055D01*
X027141Y005107D01*
X027189Y005156D01*
X027241Y005203D01*
X027295Y005246D01*
X027351Y005286D01*
X027410Y005323D01*
X027470Y005357D01*
X027533Y005387D01*
X027597Y005413D01*
X027662Y005435D01*
X027729Y005454D01*
X027796Y005469D01*
X027865Y005480D01*
X027934Y005487D01*
X028003Y005490D01*
X028072Y005489D01*
X028141Y005484D01*
X028210Y005475D01*
X028278Y005462D01*
X028345Y005445D01*
X028411Y005425D01*
X028476Y005400D01*
X028539Y005372D01*
X028600Y005340D01*
X028660Y005305D01*
X028718Y005267D01*
X028773Y005225D01*
X028825Y005180D01*
X028875Y005132D01*
X028922Y005081D01*
X028967Y005028D01*
X029008Y004972D01*
X029045Y004914D01*
X029080Y004854D01*
X029110Y004792D01*
X029138Y004729D01*
X029161Y004663D01*
X029181Y004597D01*
X029197Y004530D01*
X029209Y004461D01*
X029217Y004393D01*
X029221Y004324D01*
X029221Y004254D01*
X029217Y004185D01*
X029209Y004117D01*
X029197Y004048D01*
X029181Y003981D01*
X029161Y003915D01*
X029138Y003849D01*
X029110Y003786D01*
X029080Y003724D01*
X029045Y003664D01*
X029008Y003606D01*
X028967Y003550D01*
X028922Y003497D01*
X028875Y003446D01*
X028825Y003398D01*
X028773Y003353D01*
X028718Y003311D01*
X028660Y003273D01*
X028600Y003238D01*
X028539Y003206D01*
X028476Y003178D01*
X028411Y003153D01*
X028345Y003133D01*
X028278Y003116D01*
X028210Y003103D01*
X028141Y003094D01*
X028072Y003089D01*
X028003Y003088D01*
X027934Y003091D01*
X027865Y003098D01*
X027796Y003109D01*
X027729Y003124D01*
X027662Y003143D01*
X027597Y003165D01*
X027533Y003191D01*
X027470Y003221D01*
X027410Y003255D01*
X027351Y003292D01*
X027295Y003332D01*
X027241Y003375D01*
X027189Y003422D01*
X027141Y003471D01*
X027095Y003523D01*
X027052Y003577D01*
X027013Y003634D01*
X026977Y003694D01*
X026944Y003755D01*
X026915Y003817D01*
X026890Y003882D01*
X026869Y003948D01*
X026851Y004015D01*
X026837Y004082D01*
X026827Y004151D01*
X026821Y004220D01*
X026819Y004289D01*
X049319Y004289D02*
X049321Y004358D01*
X049327Y004427D01*
X049337Y004496D01*
X049351Y004563D01*
X049369Y004630D01*
X049390Y004696D01*
X049415Y004761D01*
X049444Y004823D01*
X049477Y004884D01*
X049513Y004944D01*
X049552Y005001D01*
X049595Y005055D01*
X049641Y005107D01*
X049689Y005156D01*
X049741Y005203D01*
X049795Y005246D01*
X049851Y005286D01*
X049910Y005323D01*
X049970Y005357D01*
X050033Y005387D01*
X050097Y005413D01*
X050162Y005435D01*
X050229Y005454D01*
X050296Y005469D01*
X050365Y005480D01*
X050434Y005487D01*
X050503Y005490D01*
X050572Y005489D01*
X050641Y005484D01*
X050710Y005475D01*
X050778Y005462D01*
X050845Y005445D01*
X050911Y005425D01*
X050976Y005400D01*
X051039Y005372D01*
X051100Y005340D01*
X051160Y005305D01*
X051218Y005267D01*
X051273Y005225D01*
X051325Y005180D01*
X051375Y005132D01*
X051422Y005081D01*
X051467Y005028D01*
X051508Y004972D01*
X051545Y004914D01*
X051580Y004854D01*
X051610Y004792D01*
X051638Y004729D01*
X051661Y004663D01*
X051681Y004597D01*
X051697Y004530D01*
X051709Y004461D01*
X051717Y004393D01*
X051721Y004324D01*
X051721Y004254D01*
X051717Y004185D01*
X051709Y004117D01*
X051697Y004048D01*
X051681Y003981D01*
X051661Y003915D01*
X051638Y003849D01*
X051610Y003786D01*
X051580Y003724D01*
X051545Y003664D01*
X051508Y003606D01*
X051467Y003550D01*
X051422Y003497D01*
X051375Y003446D01*
X051325Y003398D01*
X051273Y003353D01*
X051218Y003311D01*
X051160Y003273D01*
X051100Y003238D01*
X051039Y003206D01*
X050976Y003178D01*
X050911Y003153D01*
X050845Y003133D01*
X050778Y003116D01*
X050710Y003103D01*
X050641Y003094D01*
X050572Y003089D01*
X050503Y003088D01*
X050434Y003091D01*
X050365Y003098D01*
X050296Y003109D01*
X050229Y003124D01*
X050162Y003143D01*
X050097Y003165D01*
X050033Y003191D01*
X049970Y003221D01*
X049910Y003255D01*
X049851Y003292D01*
X049795Y003332D01*
X049741Y003375D01*
X049689Y003422D01*
X049641Y003471D01*
X049595Y003523D01*
X049552Y003577D01*
X049513Y003634D01*
X049477Y003694D01*
X049444Y003755D01*
X049415Y003817D01*
X049390Y003882D01*
X049369Y003948D01*
X049351Y004015D01*
X049337Y004082D01*
X049327Y004151D01*
X049321Y004220D01*
X049319Y004289D01*
X056819Y004289D02*
X056821Y004358D01*
X056827Y004427D01*
X056837Y004496D01*
X056851Y004563D01*
X056869Y004630D01*
X056890Y004696D01*
X056915Y004761D01*
X056944Y004823D01*
X056977Y004884D01*
X057013Y004944D01*
X057052Y005001D01*
X057095Y005055D01*
X057141Y005107D01*
X057189Y005156D01*
X057241Y005203D01*
X057295Y005246D01*
X057351Y005286D01*
X057410Y005323D01*
X057470Y005357D01*
X057533Y005387D01*
X057597Y005413D01*
X057662Y005435D01*
X057729Y005454D01*
X057796Y005469D01*
X057865Y005480D01*
X057934Y005487D01*
X058003Y005490D01*
X058072Y005489D01*
X058141Y005484D01*
X058210Y005475D01*
X058278Y005462D01*
X058345Y005445D01*
X058411Y005425D01*
X058476Y005400D01*
X058539Y005372D01*
X058600Y005340D01*
X058660Y005305D01*
X058718Y005267D01*
X058773Y005225D01*
X058825Y005180D01*
X058875Y005132D01*
X058922Y005081D01*
X058967Y005028D01*
X059008Y004972D01*
X059045Y004914D01*
X059080Y004854D01*
X059110Y004792D01*
X059138Y004729D01*
X059161Y004663D01*
X059181Y004597D01*
X059197Y004530D01*
X059209Y004461D01*
X059217Y004393D01*
X059221Y004324D01*
X059221Y004254D01*
X059217Y004185D01*
X059209Y004117D01*
X059197Y004048D01*
X059181Y003981D01*
X059161Y003915D01*
X059138Y003849D01*
X059110Y003786D01*
X059080Y003724D01*
X059045Y003664D01*
X059008Y003606D01*
X058967Y003550D01*
X058922Y003497D01*
X058875Y003446D01*
X058825Y003398D01*
X058773Y003353D01*
X058718Y003311D01*
X058660Y003273D01*
X058600Y003238D01*
X058539Y003206D01*
X058476Y003178D01*
X058411Y003153D01*
X058345Y003133D01*
X058278Y003116D01*
X058210Y003103D01*
X058141Y003094D01*
X058072Y003089D01*
X058003Y003088D01*
X057934Y003091D01*
X057865Y003098D01*
X057796Y003109D01*
X057729Y003124D01*
X057662Y003143D01*
X057597Y003165D01*
X057533Y003191D01*
X057470Y003221D01*
X057410Y003255D01*
X057351Y003292D01*
X057295Y003332D01*
X057241Y003375D01*
X057189Y003422D01*
X057141Y003471D01*
X057095Y003523D01*
X057052Y003577D01*
X057013Y003634D01*
X056977Y003694D01*
X056944Y003755D01*
X056915Y003817D01*
X056890Y003882D01*
X056869Y003948D01*
X056851Y004015D01*
X056837Y004082D01*
X056827Y004151D01*
X056821Y004220D01*
X056819Y004289D01*
X064044Y004880D02*
X064046Y004957D01*
X064052Y005033D01*
X064062Y005109D01*
X064076Y005184D01*
X064093Y005259D01*
X064115Y005332D01*
X064140Y005405D01*
X064170Y005476D01*
X064202Y005545D01*
X064239Y005612D01*
X064278Y005678D01*
X064321Y005741D01*
X064368Y005802D01*
X064417Y005861D01*
X064470Y005917D01*
X064525Y005970D01*
X064583Y006020D01*
X064643Y006067D01*
X064706Y006111D01*
X064771Y006152D01*
X064838Y006189D01*
X064907Y006223D01*
X064977Y006253D01*
X065049Y006279D01*
X065123Y006301D01*
X065197Y006320D01*
X065272Y006335D01*
X065348Y006346D01*
X065424Y006353D01*
X065501Y006356D01*
X065577Y006355D01*
X065654Y006350D01*
X065730Y006341D01*
X065806Y006328D01*
X065880Y006311D01*
X065954Y006291D01*
X066027Y006266D01*
X066098Y006238D01*
X066168Y006206D01*
X066236Y006171D01*
X066302Y006132D01*
X066366Y006090D01*
X066427Y006044D01*
X066487Y005995D01*
X066543Y005944D01*
X066597Y005889D01*
X066648Y005832D01*
X066696Y005772D01*
X066741Y005710D01*
X066782Y005645D01*
X066820Y005579D01*
X066855Y005511D01*
X066885Y005440D01*
X066913Y005369D01*
X066936Y005296D01*
X066956Y005222D01*
X066972Y005147D01*
X066984Y005071D01*
X066992Y004995D01*
X066996Y004918D01*
X066996Y004842D01*
X066992Y004765D01*
X066984Y004689D01*
X066972Y004613D01*
X066956Y004538D01*
X066936Y004464D01*
X066913Y004391D01*
X066885Y004320D01*
X066855Y004249D01*
X066820Y004181D01*
X066782Y004115D01*
X066741Y004050D01*
X066696Y003988D01*
X066648Y003928D01*
X066597Y003871D01*
X066543Y003816D01*
X066487Y003765D01*
X066427Y003716D01*
X066366Y003670D01*
X066302Y003628D01*
X066236Y003589D01*
X066168Y003554D01*
X066098Y003522D01*
X066027Y003494D01*
X065954Y003469D01*
X065880Y003449D01*
X065806Y003432D01*
X065730Y003419D01*
X065654Y003410D01*
X065577Y003405D01*
X065501Y003404D01*
X065424Y003407D01*
X065348Y003414D01*
X065272Y003425D01*
X065197Y003440D01*
X065123Y003459D01*
X065049Y003481D01*
X064977Y003507D01*
X064907Y003537D01*
X064838Y003571D01*
X064771Y003608D01*
X064706Y003649D01*
X064643Y003693D01*
X064583Y003740D01*
X064525Y003790D01*
X064470Y003843D01*
X064417Y003899D01*
X064368Y003958D01*
X064321Y004019D01*
X064278Y004082D01*
X064239Y004148D01*
X064202Y004215D01*
X064170Y004284D01*
X064140Y004355D01*
X064115Y004428D01*
X064093Y004501D01*
X064076Y004576D01*
X064062Y004651D01*
X064052Y004727D01*
X064046Y004803D01*
X064044Y004880D01*
X064536Y010685D02*
X064538Y010747D01*
X064544Y010810D01*
X064554Y010871D01*
X064568Y010932D01*
X064585Y010992D01*
X064606Y011051D01*
X064632Y011108D01*
X064660Y011163D01*
X064692Y011217D01*
X064728Y011268D01*
X064766Y011318D01*
X064808Y011364D01*
X064852Y011408D01*
X064900Y011449D01*
X064949Y011487D01*
X065001Y011521D01*
X065055Y011552D01*
X065111Y011580D01*
X065169Y011604D01*
X065228Y011625D01*
X065288Y011641D01*
X065349Y011654D01*
X065411Y011663D01*
X065473Y011668D01*
X065536Y011669D01*
X065598Y011666D01*
X065660Y011659D01*
X065722Y011648D01*
X065782Y011633D01*
X065842Y011615D01*
X065900Y011593D01*
X065957Y011567D01*
X066012Y011537D01*
X066065Y011504D01*
X066116Y011468D01*
X066164Y011429D01*
X066210Y011386D01*
X066253Y011341D01*
X066293Y011293D01*
X066330Y011243D01*
X066364Y011190D01*
X066395Y011136D01*
X066421Y011080D01*
X066445Y011022D01*
X066464Y010962D01*
X066480Y010902D01*
X066492Y010840D01*
X066500Y010779D01*
X066504Y010716D01*
X066504Y010654D01*
X066500Y010591D01*
X066492Y010530D01*
X066480Y010468D01*
X066464Y010408D01*
X066445Y010348D01*
X066421Y010290D01*
X066395Y010234D01*
X066364Y010180D01*
X066330Y010127D01*
X066293Y010077D01*
X066253Y010029D01*
X066210Y009984D01*
X066164Y009941D01*
X066116Y009902D01*
X066065Y009866D01*
X066012Y009833D01*
X065957Y009803D01*
X065900Y009777D01*
X065842Y009755D01*
X065782Y009737D01*
X065722Y009722D01*
X065660Y009711D01*
X065598Y009704D01*
X065536Y009701D01*
X065473Y009702D01*
X065411Y009707D01*
X065349Y009716D01*
X065288Y009729D01*
X065228Y009745D01*
X065169Y009766D01*
X065111Y009790D01*
X065055Y009818D01*
X065001Y009849D01*
X064949Y009883D01*
X064900Y009921D01*
X064852Y009962D01*
X064808Y010006D01*
X064766Y010052D01*
X064728Y010102D01*
X064692Y010153D01*
X064660Y010207D01*
X064632Y010262D01*
X064606Y010319D01*
X064585Y010378D01*
X064568Y010438D01*
X064554Y010499D01*
X064544Y010560D01*
X064538Y010623D01*
X064536Y010685D01*
X057036Y010685D02*
X057038Y010747D01*
X057044Y010810D01*
X057054Y010871D01*
X057068Y010932D01*
X057085Y010992D01*
X057106Y011051D01*
X057132Y011108D01*
X057160Y011163D01*
X057192Y011217D01*
X057228Y011268D01*
X057266Y011318D01*
X057308Y011364D01*
X057352Y011408D01*
X057400Y011449D01*
X057449Y011487D01*
X057501Y011521D01*
X057555Y011552D01*
X057611Y011580D01*
X057669Y011604D01*
X057728Y011625D01*
X057788Y011641D01*
X057849Y011654D01*
X057911Y011663D01*
X057973Y011668D01*
X058036Y011669D01*
X058098Y011666D01*
X058160Y011659D01*
X058222Y011648D01*
X058282Y011633D01*
X058342Y011615D01*
X058400Y011593D01*
X058457Y011567D01*
X058512Y011537D01*
X058565Y011504D01*
X058616Y011468D01*
X058664Y011429D01*
X058710Y011386D01*
X058753Y011341D01*
X058793Y011293D01*
X058830Y011243D01*
X058864Y011190D01*
X058895Y011136D01*
X058921Y011080D01*
X058945Y011022D01*
X058964Y010962D01*
X058980Y010902D01*
X058992Y010840D01*
X059000Y010779D01*
X059004Y010716D01*
X059004Y010654D01*
X059000Y010591D01*
X058992Y010530D01*
X058980Y010468D01*
X058964Y010408D01*
X058945Y010348D01*
X058921Y010290D01*
X058895Y010234D01*
X058864Y010180D01*
X058830Y010127D01*
X058793Y010077D01*
X058753Y010029D01*
X058710Y009984D01*
X058664Y009941D01*
X058616Y009902D01*
X058565Y009866D01*
X058512Y009833D01*
X058457Y009803D01*
X058400Y009777D01*
X058342Y009755D01*
X058282Y009737D01*
X058222Y009722D01*
X058160Y009711D01*
X058098Y009704D01*
X058036Y009701D01*
X057973Y009702D01*
X057911Y009707D01*
X057849Y009716D01*
X057788Y009729D01*
X057728Y009745D01*
X057669Y009766D01*
X057611Y009790D01*
X057555Y009818D01*
X057501Y009849D01*
X057449Y009883D01*
X057400Y009921D01*
X057352Y009962D01*
X057308Y010006D01*
X057266Y010052D01*
X057228Y010102D01*
X057192Y010153D01*
X057160Y010207D01*
X057132Y010262D01*
X057106Y010319D01*
X057085Y010378D01*
X057068Y010438D01*
X057054Y010499D01*
X057044Y010560D01*
X057038Y010623D01*
X057036Y010685D01*
X049536Y010685D02*
X049538Y010747D01*
X049544Y010810D01*
X049554Y010871D01*
X049568Y010932D01*
X049585Y010992D01*
X049606Y011051D01*
X049632Y011108D01*
X049660Y011163D01*
X049692Y011217D01*
X049728Y011268D01*
X049766Y011318D01*
X049808Y011364D01*
X049852Y011408D01*
X049900Y011449D01*
X049949Y011487D01*
X050001Y011521D01*
X050055Y011552D01*
X050111Y011580D01*
X050169Y011604D01*
X050228Y011625D01*
X050288Y011641D01*
X050349Y011654D01*
X050411Y011663D01*
X050473Y011668D01*
X050536Y011669D01*
X050598Y011666D01*
X050660Y011659D01*
X050722Y011648D01*
X050782Y011633D01*
X050842Y011615D01*
X050900Y011593D01*
X050957Y011567D01*
X051012Y011537D01*
X051065Y011504D01*
X051116Y011468D01*
X051164Y011429D01*
X051210Y011386D01*
X051253Y011341D01*
X051293Y011293D01*
X051330Y011243D01*
X051364Y011190D01*
X051395Y011136D01*
X051421Y011080D01*
X051445Y011022D01*
X051464Y010962D01*
X051480Y010902D01*
X051492Y010840D01*
X051500Y010779D01*
X051504Y010716D01*
X051504Y010654D01*
X051500Y010591D01*
X051492Y010530D01*
X051480Y010468D01*
X051464Y010408D01*
X051445Y010348D01*
X051421Y010290D01*
X051395Y010234D01*
X051364Y010180D01*
X051330Y010127D01*
X051293Y010077D01*
X051253Y010029D01*
X051210Y009984D01*
X051164Y009941D01*
X051116Y009902D01*
X051065Y009866D01*
X051012Y009833D01*
X050957Y009803D01*
X050900Y009777D01*
X050842Y009755D01*
X050782Y009737D01*
X050722Y009722D01*
X050660Y009711D01*
X050598Y009704D01*
X050536Y009701D01*
X050473Y009702D01*
X050411Y009707D01*
X050349Y009716D01*
X050288Y009729D01*
X050228Y009745D01*
X050169Y009766D01*
X050111Y009790D01*
X050055Y009818D01*
X050001Y009849D01*
X049949Y009883D01*
X049900Y009921D01*
X049852Y009962D01*
X049808Y010006D01*
X049766Y010052D01*
X049728Y010102D01*
X049692Y010153D01*
X049660Y010207D01*
X049632Y010262D01*
X049606Y010319D01*
X049585Y010378D01*
X049568Y010438D01*
X049554Y010499D01*
X049544Y010560D01*
X049538Y010623D01*
X049536Y010685D01*
X072036Y010685D02*
X072038Y010747D01*
X072044Y010810D01*
X072054Y010871D01*
X072068Y010932D01*
X072085Y010992D01*
X072106Y011051D01*
X072132Y011108D01*
X072160Y011163D01*
X072192Y011217D01*
X072228Y011268D01*
X072266Y011318D01*
X072308Y011364D01*
X072352Y011408D01*
X072400Y011449D01*
X072449Y011487D01*
X072501Y011521D01*
X072555Y011552D01*
X072611Y011580D01*
X072669Y011604D01*
X072728Y011625D01*
X072788Y011641D01*
X072849Y011654D01*
X072911Y011663D01*
X072973Y011668D01*
X073036Y011669D01*
X073098Y011666D01*
X073160Y011659D01*
X073222Y011648D01*
X073282Y011633D01*
X073342Y011615D01*
X073400Y011593D01*
X073457Y011567D01*
X073512Y011537D01*
X073565Y011504D01*
X073616Y011468D01*
X073664Y011429D01*
X073710Y011386D01*
X073753Y011341D01*
X073793Y011293D01*
X073830Y011243D01*
X073864Y011190D01*
X073895Y011136D01*
X073921Y011080D01*
X073945Y011022D01*
X073964Y010962D01*
X073980Y010902D01*
X073992Y010840D01*
X074000Y010779D01*
X074004Y010716D01*
X074004Y010654D01*
X074000Y010591D01*
X073992Y010530D01*
X073980Y010468D01*
X073964Y010408D01*
X073945Y010348D01*
X073921Y010290D01*
X073895Y010234D01*
X073864Y010180D01*
X073830Y010127D01*
X073793Y010077D01*
X073753Y010029D01*
X073710Y009984D01*
X073664Y009941D01*
X073616Y009902D01*
X073565Y009866D01*
X073512Y009833D01*
X073457Y009803D01*
X073400Y009777D01*
X073342Y009755D01*
X073282Y009737D01*
X073222Y009722D01*
X073160Y009711D01*
X073098Y009704D01*
X073036Y009701D01*
X072973Y009702D01*
X072911Y009707D01*
X072849Y009716D01*
X072788Y009729D01*
X072728Y009745D01*
X072669Y009766D01*
X072611Y009790D01*
X072555Y009818D01*
X072501Y009849D01*
X072449Y009883D01*
X072400Y009921D01*
X072352Y009962D01*
X072308Y010006D01*
X072266Y010052D01*
X072228Y010102D01*
X072192Y010153D01*
X072160Y010207D01*
X072132Y010262D01*
X072106Y010319D01*
X072085Y010378D01*
X072068Y010438D01*
X072054Y010499D01*
X072044Y010560D01*
X072038Y010623D01*
X072036Y010685D01*
X072036Y018185D02*
X072038Y018247D01*
X072044Y018310D01*
X072054Y018371D01*
X072068Y018432D01*
X072085Y018492D01*
X072106Y018551D01*
X072132Y018608D01*
X072160Y018663D01*
X072192Y018717D01*
X072228Y018768D01*
X072266Y018818D01*
X072308Y018864D01*
X072352Y018908D01*
X072400Y018949D01*
X072449Y018987D01*
X072501Y019021D01*
X072555Y019052D01*
X072611Y019080D01*
X072669Y019104D01*
X072728Y019125D01*
X072788Y019141D01*
X072849Y019154D01*
X072911Y019163D01*
X072973Y019168D01*
X073036Y019169D01*
X073098Y019166D01*
X073160Y019159D01*
X073222Y019148D01*
X073282Y019133D01*
X073342Y019115D01*
X073400Y019093D01*
X073457Y019067D01*
X073512Y019037D01*
X073565Y019004D01*
X073616Y018968D01*
X073664Y018929D01*
X073710Y018886D01*
X073753Y018841D01*
X073793Y018793D01*
X073830Y018743D01*
X073864Y018690D01*
X073895Y018636D01*
X073921Y018580D01*
X073945Y018522D01*
X073964Y018462D01*
X073980Y018402D01*
X073992Y018340D01*
X074000Y018279D01*
X074004Y018216D01*
X074004Y018154D01*
X074000Y018091D01*
X073992Y018030D01*
X073980Y017968D01*
X073964Y017908D01*
X073945Y017848D01*
X073921Y017790D01*
X073895Y017734D01*
X073864Y017680D01*
X073830Y017627D01*
X073793Y017577D01*
X073753Y017529D01*
X073710Y017484D01*
X073664Y017441D01*
X073616Y017402D01*
X073565Y017366D01*
X073512Y017333D01*
X073457Y017303D01*
X073400Y017277D01*
X073342Y017255D01*
X073282Y017237D01*
X073222Y017222D01*
X073160Y017211D01*
X073098Y017204D01*
X073036Y017201D01*
X072973Y017202D01*
X072911Y017207D01*
X072849Y017216D01*
X072788Y017229D01*
X072728Y017245D01*
X072669Y017266D01*
X072611Y017290D01*
X072555Y017318D01*
X072501Y017349D01*
X072449Y017383D01*
X072400Y017421D01*
X072352Y017462D01*
X072308Y017506D01*
X072266Y017552D01*
X072228Y017602D01*
X072192Y017653D01*
X072160Y017707D01*
X072132Y017762D01*
X072106Y017819D01*
X072085Y017878D01*
X072068Y017938D01*
X072054Y017999D01*
X072044Y018060D01*
X072038Y018123D01*
X072036Y018185D01*
D11*
X073020Y018185D03*
X073020Y010685D03*
X065520Y010685D03*
X058020Y010685D03*
X050520Y010685D03*
D12*
X050520Y004289D03*
X058020Y004289D03*
X028020Y004289D03*
X020520Y004289D03*
X013020Y004289D03*
X005520Y004289D03*
D13*
X065520Y004880D03*
D14*
X075020Y008435D03*
X075020Y020685D03*
X031520Y020640D03*
X002020Y020640D03*
X002020Y008435D03*
X031520Y008435D03*
D15*
X050520Y018185D03*
X058020Y018185D03*
X065520Y018185D03*
D16*
X073020Y004820D03*
M02*
