%
M48
M72
T01C0.0984
T02C0.1969
T03C0.2402
T04C0.2500
T05C0.2953
T06C0.3543
%
T01
X31520Y8435
X2020Y8435
X2020Y20640
X31520Y20640
X75020Y8435
X75020Y20685
T02
X50520Y10685
X58020Y10685
X65520Y10685
X73020Y10685
X73020Y18185
T03
X5520Y4289
X13020Y4289
X20520Y4289
X28020Y4289
X50520Y4289
X58020Y4289
T04
X73020Y4820
T05
X65520Y4880
T06
X65520Y18185
X58020Y18185
X50520Y18185
M30
