G75*
%MOIN*%
%OFA0B0*%
%FSLAX24Y24*%
%IPPOS*%
%LPD*%
%AMOC8*
5,1,8,0,0,1.08239X$1,22.5*
%
%ADD10C,0.0000*%
%ADD11C,0.0060*%
%ADD12C,0.0050*%
D10*
X000500Y000250D02*
X000500Y015250D01*
X076500Y015250D01*
X074008Y013750D02*
X074010Y013794D01*
X074016Y013838D01*
X074026Y013881D01*
X074039Y013923D01*
X074057Y013963D01*
X074078Y014002D01*
X074102Y014039D01*
X074129Y014074D01*
X074160Y014106D01*
X074193Y014135D01*
X074229Y014161D01*
X074267Y014183D01*
X074307Y014202D01*
X074348Y014218D01*
X074391Y014230D01*
X074434Y014238D01*
X074478Y014242D01*
X074522Y014242D01*
X074566Y014238D01*
X074609Y014230D01*
X074652Y014218D01*
X074693Y014202D01*
X074733Y014183D01*
X074771Y014161D01*
X074807Y014135D01*
X074840Y014106D01*
X074871Y014074D01*
X074898Y014039D01*
X074922Y014002D01*
X074943Y013963D01*
X074961Y013923D01*
X074974Y013881D01*
X074984Y013838D01*
X074990Y013794D01*
X074992Y013750D01*
X074990Y013706D01*
X074984Y013662D01*
X074974Y013619D01*
X074961Y013577D01*
X074943Y013537D01*
X074922Y013498D01*
X074898Y013461D01*
X074871Y013426D01*
X074840Y013394D01*
X074807Y013365D01*
X074771Y013339D01*
X074733Y013317D01*
X074693Y013298D01*
X074652Y013282D01*
X074609Y013270D01*
X074566Y013262D01*
X074522Y013258D01*
X074478Y013258D01*
X074434Y013262D01*
X074391Y013270D01*
X074348Y013282D01*
X074307Y013298D01*
X074267Y013317D01*
X074229Y013339D01*
X074193Y013365D01*
X074160Y013394D01*
X074129Y013426D01*
X074102Y013461D01*
X074078Y013498D01*
X074057Y013537D01*
X074039Y013577D01*
X074026Y013619D01*
X074016Y013662D01*
X074010Y013706D01*
X074008Y013750D01*
X059213Y016313D02*
X059215Y016347D01*
X059221Y016381D01*
X059231Y016414D01*
X059244Y016445D01*
X059262Y016475D01*
X059282Y016503D01*
X059306Y016528D01*
X059332Y016550D01*
X059360Y016568D01*
X059391Y016584D01*
X059423Y016596D01*
X059457Y016604D01*
X059491Y016608D01*
X059525Y016608D01*
X059559Y016604D01*
X059593Y016596D01*
X059625Y016584D01*
X059655Y016568D01*
X059684Y016550D01*
X059710Y016528D01*
X059734Y016503D01*
X059754Y016475D01*
X059772Y016445D01*
X059785Y016414D01*
X059795Y016381D01*
X059801Y016347D01*
X059803Y016313D01*
X059801Y016279D01*
X059795Y016245D01*
X059785Y016212D01*
X059772Y016181D01*
X059754Y016151D01*
X059734Y016123D01*
X059710Y016098D01*
X059684Y016076D01*
X059656Y016058D01*
X059625Y016042D01*
X059593Y016030D01*
X059559Y016022D01*
X059525Y016018D01*
X059491Y016018D01*
X059457Y016022D01*
X059423Y016030D01*
X059391Y016042D01*
X059360Y016058D01*
X059332Y016076D01*
X059306Y016098D01*
X059282Y016123D01*
X059262Y016151D01*
X059244Y016181D01*
X059231Y016212D01*
X059221Y016245D01*
X059215Y016279D01*
X059213Y016313D01*
X055276Y016313D02*
X055278Y016347D01*
X055284Y016381D01*
X055294Y016414D01*
X055307Y016445D01*
X055325Y016475D01*
X055345Y016503D01*
X055369Y016528D01*
X055395Y016550D01*
X055423Y016568D01*
X055454Y016584D01*
X055486Y016596D01*
X055520Y016604D01*
X055554Y016608D01*
X055588Y016608D01*
X055622Y016604D01*
X055656Y016596D01*
X055688Y016584D01*
X055718Y016568D01*
X055747Y016550D01*
X055773Y016528D01*
X055797Y016503D01*
X055817Y016475D01*
X055835Y016445D01*
X055848Y016414D01*
X055858Y016381D01*
X055864Y016347D01*
X055866Y016313D01*
X055864Y016279D01*
X055858Y016245D01*
X055848Y016212D01*
X055835Y016181D01*
X055817Y016151D01*
X055797Y016123D01*
X055773Y016098D01*
X055747Y016076D01*
X055719Y016058D01*
X055688Y016042D01*
X055656Y016030D01*
X055622Y016022D01*
X055588Y016018D01*
X055554Y016018D01*
X055520Y016022D01*
X055486Y016030D01*
X055454Y016042D01*
X055423Y016058D01*
X055395Y016076D01*
X055369Y016098D01*
X055345Y016123D01*
X055325Y016151D01*
X055307Y016181D01*
X055294Y016212D01*
X055284Y016245D01*
X055278Y016279D01*
X055276Y016313D01*
X051713Y016313D02*
X051715Y016347D01*
X051721Y016381D01*
X051731Y016414D01*
X051744Y016445D01*
X051762Y016475D01*
X051782Y016503D01*
X051806Y016528D01*
X051832Y016550D01*
X051860Y016568D01*
X051891Y016584D01*
X051923Y016596D01*
X051957Y016604D01*
X051991Y016608D01*
X052025Y016608D01*
X052059Y016604D01*
X052093Y016596D01*
X052125Y016584D01*
X052155Y016568D01*
X052184Y016550D01*
X052210Y016528D01*
X052234Y016503D01*
X052254Y016475D01*
X052272Y016445D01*
X052285Y016414D01*
X052295Y016381D01*
X052301Y016347D01*
X052303Y016313D01*
X052301Y016279D01*
X052295Y016245D01*
X052285Y016212D01*
X052272Y016181D01*
X052254Y016151D01*
X052234Y016123D01*
X052210Y016098D01*
X052184Y016076D01*
X052156Y016058D01*
X052125Y016042D01*
X052093Y016030D01*
X052059Y016022D01*
X052025Y016018D01*
X051991Y016018D01*
X051957Y016022D01*
X051923Y016030D01*
X051891Y016042D01*
X051860Y016058D01*
X051832Y016076D01*
X051806Y016098D01*
X051782Y016123D01*
X051762Y016151D01*
X051744Y016181D01*
X051731Y016212D01*
X051721Y016245D01*
X051715Y016279D01*
X051713Y016313D01*
X049744Y018281D02*
X049746Y018315D01*
X049752Y018349D01*
X049762Y018382D01*
X049775Y018413D01*
X049793Y018443D01*
X049813Y018471D01*
X049837Y018496D01*
X049863Y018518D01*
X049891Y018536D01*
X049922Y018552D01*
X049954Y018564D01*
X049988Y018572D01*
X050022Y018576D01*
X050056Y018576D01*
X050090Y018572D01*
X050124Y018564D01*
X050156Y018552D01*
X050186Y018536D01*
X050215Y018518D01*
X050241Y018496D01*
X050265Y018471D01*
X050285Y018443D01*
X050303Y018413D01*
X050316Y018382D01*
X050326Y018349D01*
X050332Y018315D01*
X050334Y018281D01*
X050332Y018247D01*
X050326Y018213D01*
X050316Y018180D01*
X050303Y018149D01*
X050285Y018119D01*
X050265Y018091D01*
X050241Y018066D01*
X050215Y018044D01*
X050187Y018026D01*
X050156Y018010D01*
X050124Y017998D01*
X050090Y017990D01*
X050056Y017986D01*
X050022Y017986D01*
X049988Y017990D01*
X049954Y017998D01*
X049922Y018010D01*
X049891Y018026D01*
X049863Y018044D01*
X049837Y018066D01*
X049813Y018091D01*
X049793Y018119D01*
X049775Y018149D01*
X049762Y018180D01*
X049752Y018213D01*
X049746Y018247D01*
X049744Y018281D01*
X047776Y016313D02*
X047778Y016347D01*
X047784Y016381D01*
X047794Y016414D01*
X047807Y016445D01*
X047825Y016475D01*
X047845Y016503D01*
X047869Y016528D01*
X047895Y016550D01*
X047923Y016568D01*
X047954Y016584D01*
X047986Y016596D01*
X048020Y016604D01*
X048054Y016608D01*
X048088Y016608D01*
X048122Y016604D01*
X048156Y016596D01*
X048188Y016584D01*
X048218Y016568D01*
X048247Y016550D01*
X048273Y016528D01*
X048297Y016503D01*
X048317Y016475D01*
X048335Y016445D01*
X048348Y016414D01*
X048358Y016381D01*
X048364Y016347D01*
X048366Y016313D01*
X048364Y016279D01*
X048358Y016245D01*
X048348Y016212D01*
X048335Y016181D01*
X048317Y016151D01*
X048297Y016123D01*
X048273Y016098D01*
X048247Y016076D01*
X048219Y016058D01*
X048188Y016042D01*
X048156Y016030D01*
X048122Y016022D01*
X048088Y016018D01*
X048054Y016018D01*
X048020Y016022D01*
X047986Y016030D01*
X047954Y016042D01*
X047923Y016058D01*
X047895Y016076D01*
X047869Y016098D01*
X047845Y016123D01*
X047825Y016151D01*
X047807Y016181D01*
X047794Y016212D01*
X047784Y016245D01*
X047778Y016279D01*
X047776Y016313D01*
X057244Y018281D02*
X057246Y018315D01*
X057252Y018349D01*
X057262Y018382D01*
X057275Y018413D01*
X057293Y018443D01*
X057313Y018471D01*
X057337Y018496D01*
X057363Y018518D01*
X057391Y018536D01*
X057422Y018552D01*
X057454Y018564D01*
X057488Y018572D01*
X057522Y018576D01*
X057556Y018576D01*
X057590Y018572D01*
X057624Y018564D01*
X057656Y018552D01*
X057686Y018536D01*
X057715Y018518D01*
X057741Y018496D01*
X057765Y018471D01*
X057785Y018443D01*
X057803Y018413D01*
X057816Y018382D01*
X057826Y018349D01*
X057832Y018315D01*
X057834Y018281D01*
X057832Y018247D01*
X057826Y018213D01*
X057816Y018180D01*
X057803Y018149D01*
X057785Y018119D01*
X057765Y018091D01*
X057741Y018066D01*
X057715Y018044D01*
X057687Y018026D01*
X057656Y018010D01*
X057624Y017998D01*
X057590Y017990D01*
X057556Y017986D01*
X057522Y017986D01*
X057488Y017990D01*
X057454Y017998D01*
X057422Y018010D01*
X057391Y018026D01*
X057363Y018044D01*
X057337Y018066D01*
X057313Y018091D01*
X057293Y018119D01*
X057275Y018149D01*
X057262Y018180D01*
X057252Y018213D01*
X057246Y018247D01*
X057244Y018281D01*
X054231Y023250D02*
X054233Y023288D01*
X054239Y023327D01*
X054249Y023364D01*
X054262Y023400D01*
X054280Y023434D01*
X054300Y023467D01*
X054324Y023497D01*
X054351Y023524D01*
X054381Y023549D01*
X054412Y023571D01*
X054446Y023589D01*
X054482Y023603D01*
X054519Y023614D01*
X054557Y023621D01*
X054595Y023624D01*
X054634Y023623D01*
X054672Y023618D01*
X054710Y023609D01*
X054746Y023596D01*
X054781Y023580D01*
X054814Y023560D01*
X054845Y023537D01*
X054873Y023511D01*
X054898Y023482D01*
X054921Y023451D01*
X054940Y023417D01*
X054955Y023382D01*
X054967Y023345D01*
X054975Y023308D01*
X054979Y023269D01*
X054979Y023231D01*
X054975Y023192D01*
X054967Y023155D01*
X054955Y023118D01*
X054940Y023083D01*
X054921Y023049D01*
X054898Y023018D01*
X054873Y022989D01*
X054845Y022963D01*
X054814Y022940D01*
X054781Y022920D01*
X054746Y022904D01*
X054710Y022891D01*
X054672Y022882D01*
X054634Y022877D01*
X054595Y022876D01*
X054557Y022879D01*
X054519Y022886D01*
X054482Y022897D01*
X054446Y022911D01*
X054412Y022929D01*
X054381Y022951D01*
X054351Y022976D01*
X054324Y023003D01*
X054300Y023033D01*
X054280Y023066D01*
X054262Y023100D01*
X054249Y023136D01*
X054239Y023173D01*
X054233Y023212D01*
X054231Y023250D01*
X052521Y023250D02*
X052523Y023288D01*
X052529Y023327D01*
X052539Y023364D01*
X052552Y023400D01*
X052570Y023434D01*
X052590Y023467D01*
X052614Y023497D01*
X052641Y023524D01*
X052671Y023549D01*
X052702Y023571D01*
X052736Y023589D01*
X052772Y023603D01*
X052809Y023614D01*
X052847Y023621D01*
X052885Y023624D01*
X052924Y023623D01*
X052962Y023618D01*
X053000Y023609D01*
X053036Y023596D01*
X053071Y023580D01*
X053104Y023560D01*
X053135Y023537D01*
X053163Y023511D01*
X053188Y023482D01*
X053211Y023451D01*
X053230Y023417D01*
X053245Y023382D01*
X053257Y023345D01*
X053265Y023308D01*
X053269Y023269D01*
X053269Y023231D01*
X053265Y023192D01*
X053257Y023155D01*
X053245Y023118D01*
X053230Y023083D01*
X053211Y023049D01*
X053188Y023018D01*
X053163Y022989D01*
X053135Y022963D01*
X053104Y022940D01*
X053071Y022920D01*
X053036Y022904D01*
X053000Y022891D01*
X052962Y022882D01*
X052924Y022877D01*
X052885Y022876D01*
X052847Y022879D01*
X052809Y022886D01*
X052772Y022897D01*
X052736Y022911D01*
X052702Y022929D01*
X052671Y022951D01*
X052641Y022976D01*
X052614Y023003D01*
X052590Y023033D01*
X052570Y023066D01*
X052552Y023100D01*
X052539Y023136D01*
X052529Y023173D01*
X052523Y023212D01*
X052521Y023250D01*
X046731Y023250D02*
X046733Y023288D01*
X046739Y023327D01*
X046749Y023364D01*
X046762Y023400D01*
X046780Y023434D01*
X046800Y023467D01*
X046824Y023497D01*
X046851Y023524D01*
X046881Y023549D01*
X046912Y023571D01*
X046946Y023589D01*
X046982Y023603D01*
X047019Y023614D01*
X047057Y023621D01*
X047095Y023624D01*
X047134Y023623D01*
X047172Y023618D01*
X047210Y023609D01*
X047246Y023596D01*
X047281Y023580D01*
X047314Y023560D01*
X047345Y023537D01*
X047373Y023511D01*
X047398Y023482D01*
X047421Y023451D01*
X047440Y023417D01*
X047455Y023382D01*
X047467Y023345D01*
X047475Y023308D01*
X047479Y023269D01*
X047479Y023231D01*
X047475Y023192D01*
X047467Y023155D01*
X047455Y023118D01*
X047440Y023083D01*
X047421Y023049D01*
X047398Y023018D01*
X047373Y022989D01*
X047345Y022963D01*
X047314Y022940D01*
X047281Y022920D01*
X047246Y022904D01*
X047210Y022891D01*
X047172Y022882D01*
X047134Y022877D01*
X047095Y022876D01*
X047057Y022879D01*
X047019Y022886D01*
X046982Y022897D01*
X046946Y022911D01*
X046912Y022929D01*
X046881Y022951D01*
X046851Y022976D01*
X046824Y023003D01*
X046800Y023033D01*
X046780Y023066D01*
X046762Y023100D01*
X046749Y023136D01*
X046739Y023173D01*
X046733Y023212D01*
X046731Y023250D01*
X060021Y023250D02*
X060023Y023288D01*
X060029Y023327D01*
X060039Y023364D01*
X060052Y023400D01*
X060070Y023434D01*
X060090Y023467D01*
X060114Y023497D01*
X060141Y023524D01*
X060171Y023549D01*
X060202Y023571D01*
X060236Y023589D01*
X060272Y023603D01*
X060309Y023614D01*
X060347Y023621D01*
X060385Y023624D01*
X060424Y023623D01*
X060462Y023618D01*
X060500Y023609D01*
X060536Y023596D01*
X060571Y023580D01*
X060604Y023560D01*
X060635Y023537D01*
X060663Y023511D01*
X060688Y023482D01*
X060711Y023451D01*
X060730Y023417D01*
X060745Y023382D01*
X060757Y023345D01*
X060765Y023308D01*
X060769Y023269D01*
X060769Y023231D01*
X060765Y023192D01*
X060757Y023155D01*
X060745Y023118D01*
X060730Y023083D01*
X060711Y023049D01*
X060688Y023018D01*
X060663Y022989D01*
X060635Y022963D01*
X060604Y022940D01*
X060571Y022920D01*
X060536Y022904D01*
X060500Y022891D01*
X060462Y022882D01*
X060424Y022877D01*
X060385Y022876D01*
X060347Y022879D01*
X060309Y022886D01*
X060272Y022897D01*
X060236Y022911D01*
X060202Y022929D01*
X060171Y022951D01*
X060141Y022976D01*
X060114Y023003D01*
X060090Y023033D01*
X060070Y023066D01*
X060052Y023100D01*
X060039Y023136D01*
X060029Y023173D01*
X060023Y023212D01*
X060021Y023250D01*
X068620Y024000D02*
X068622Y024050D01*
X068628Y024100D01*
X068638Y024149D01*
X068652Y024197D01*
X068669Y024244D01*
X068690Y024289D01*
X068715Y024333D01*
X068743Y024374D01*
X068775Y024413D01*
X068809Y024450D01*
X068846Y024484D01*
X068886Y024514D01*
X068928Y024541D01*
X068972Y024565D01*
X069018Y024586D01*
X069065Y024602D01*
X069113Y024615D01*
X069163Y024624D01*
X069212Y024629D01*
X069263Y024630D01*
X069313Y024627D01*
X069362Y024620D01*
X069411Y024609D01*
X069459Y024594D01*
X069505Y024576D01*
X069550Y024554D01*
X069593Y024528D01*
X069634Y024499D01*
X069673Y024467D01*
X069709Y024432D01*
X069741Y024394D01*
X069771Y024354D01*
X069798Y024311D01*
X069821Y024267D01*
X069840Y024221D01*
X069856Y024173D01*
X069868Y024124D01*
X069876Y024075D01*
X069880Y024025D01*
X069880Y023975D01*
X069876Y023925D01*
X069868Y023876D01*
X069856Y023827D01*
X069840Y023779D01*
X069821Y023733D01*
X069798Y023689D01*
X069771Y023646D01*
X069741Y023606D01*
X069709Y023568D01*
X069673Y023533D01*
X069634Y023501D01*
X069593Y023472D01*
X069550Y023446D01*
X069505Y023424D01*
X069459Y023406D01*
X069411Y023391D01*
X069362Y023380D01*
X069313Y023373D01*
X069263Y023370D01*
X069212Y023371D01*
X069163Y023376D01*
X069113Y023385D01*
X069065Y023398D01*
X069018Y023414D01*
X068972Y023435D01*
X068928Y023459D01*
X068886Y023486D01*
X068846Y023516D01*
X068809Y023550D01*
X068775Y023587D01*
X068743Y023626D01*
X068715Y023667D01*
X068690Y023711D01*
X068669Y023756D01*
X068652Y023803D01*
X068638Y023851D01*
X068628Y023900D01*
X068622Y023950D01*
X068620Y024000D01*
X037370Y039750D02*
X037372Y039800D01*
X037378Y039850D01*
X037388Y039899D01*
X037402Y039947D01*
X037419Y039994D01*
X037440Y040039D01*
X037465Y040083D01*
X037493Y040124D01*
X037525Y040163D01*
X037559Y040200D01*
X037596Y040234D01*
X037636Y040264D01*
X037678Y040291D01*
X037722Y040315D01*
X037768Y040336D01*
X037815Y040352D01*
X037863Y040365D01*
X037913Y040374D01*
X037962Y040379D01*
X038013Y040380D01*
X038063Y040377D01*
X038112Y040370D01*
X038161Y040359D01*
X038209Y040344D01*
X038255Y040326D01*
X038300Y040304D01*
X038343Y040278D01*
X038384Y040249D01*
X038423Y040217D01*
X038459Y040182D01*
X038491Y040144D01*
X038521Y040104D01*
X038548Y040061D01*
X038571Y040017D01*
X038590Y039971D01*
X038606Y039923D01*
X038618Y039874D01*
X038626Y039825D01*
X038630Y039775D01*
X038630Y039725D01*
X038626Y039675D01*
X038618Y039626D01*
X038606Y039577D01*
X038590Y039529D01*
X038571Y039483D01*
X038548Y039439D01*
X038521Y039396D01*
X038491Y039356D01*
X038459Y039318D01*
X038423Y039283D01*
X038384Y039251D01*
X038343Y039222D01*
X038300Y039196D01*
X038255Y039174D01*
X038209Y039156D01*
X038161Y039141D01*
X038112Y039130D01*
X038063Y039123D01*
X038013Y039120D01*
X037962Y039121D01*
X037913Y039126D01*
X037863Y039135D01*
X037815Y039148D01*
X037768Y039164D01*
X037722Y039185D01*
X037678Y039209D01*
X037636Y039236D01*
X037596Y039266D01*
X037559Y039300D01*
X037525Y039337D01*
X037493Y039376D01*
X037465Y039417D01*
X037440Y039461D01*
X037419Y039506D01*
X037402Y039553D01*
X037388Y039601D01*
X037378Y039650D01*
X037372Y039700D01*
X037370Y039750D01*
X006120Y024000D02*
X006122Y024050D01*
X006128Y024100D01*
X006138Y024149D01*
X006152Y024197D01*
X006169Y024244D01*
X006190Y024289D01*
X006215Y024333D01*
X006243Y024374D01*
X006275Y024413D01*
X006309Y024450D01*
X006346Y024484D01*
X006386Y024514D01*
X006428Y024541D01*
X006472Y024565D01*
X006518Y024586D01*
X006565Y024602D01*
X006613Y024615D01*
X006663Y024624D01*
X006712Y024629D01*
X006763Y024630D01*
X006813Y024627D01*
X006862Y024620D01*
X006911Y024609D01*
X006959Y024594D01*
X007005Y024576D01*
X007050Y024554D01*
X007093Y024528D01*
X007134Y024499D01*
X007173Y024467D01*
X007209Y024432D01*
X007241Y024394D01*
X007271Y024354D01*
X007298Y024311D01*
X007321Y024267D01*
X007340Y024221D01*
X007356Y024173D01*
X007368Y024124D01*
X007376Y024075D01*
X007380Y024025D01*
X007380Y023975D01*
X007376Y023925D01*
X007368Y023876D01*
X007356Y023827D01*
X007340Y023779D01*
X007321Y023733D01*
X007298Y023689D01*
X007271Y023646D01*
X007241Y023606D01*
X007209Y023568D01*
X007173Y023533D01*
X007134Y023501D01*
X007093Y023472D01*
X007050Y023446D01*
X007005Y023424D01*
X006959Y023406D01*
X006911Y023391D01*
X006862Y023380D01*
X006813Y023373D01*
X006763Y023370D01*
X006712Y023371D01*
X006663Y023376D01*
X006613Y023385D01*
X006565Y023398D01*
X006518Y023414D01*
X006472Y023435D01*
X006428Y023459D01*
X006386Y023486D01*
X006346Y023516D01*
X006309Y023550D01*
X006275Y023587D01*
X006243Y023626D01*
X006215Y023667D01*
X006190Y023711D01*
X006169Y023756D01*
X006152Y023803D01*
X006138Y023851D01*
X006128Y023900D01*
X006122Y023950D01*
X006120Y024000D01*
X004744Y018281D02*
X004746Y018315D01*
X004752Y018349D01*
X004762Y018382D01*
X004775Y018413D01*
X004793Y018443D01*
X004813Y018471D01*
X004837Y018496D01*
X004863Y018518D01*
X004891Y018536D01*
X004922Y018552D01*
X004954Y018564D01*
X004988Y018572D01*
X005022Y018576D01*
X005056Y018576D01*
X005090Y018572D01*
X005124Y018564D01*
X005156Y018552D01*
X005186Y018536D01*
X005215Y018518D01*
X005241Y018496D01*
X005265Y018471D01*
X005285Y018443D01*
X005303Y018413D01*
X005316Y018382D01*
X005326Y018349D01*
X005332Y018315D01*
X005334Y018281D01*
X005332Y018247D01*
X005326Y018213D01*
X005316Y018180D01*
X005303Y018149D01*
X005285Y018119D01*
X005265Y018091D01*
X005241Y018066D01*
X005215Y018044D01*
X005187Y018026D01*
X005156Y018010D01*
X005124Y017998D01*
X005090Y017990D01*
X005056Y017986D01*
X005022Y017986D01*
X004988Y017990D01*
X004954Y017998D01*
X004922Y018010D01*
X004891Y018026D01*
X004863Y018044D01*
X004837Y018066D01*
X004813Y018091D01*
X004793Y018119D01*
X004775Y018149D01*
X004762Y018180D01*
X004752Y018213D01*
X004746Y018247D01*
X004744Y018281D01*
X002776Y016313D02*
X002778Y016347D01*
X002784Y016381D01*
X002794Y016414D01*
X002807Y016445D01*
X002825Y016475D01*
X002845Y016503D01*
X002869Y016528D01*
X002895Y016550D01*
X002923Y016568D01*
X002954Y016584D01*
X002986Y016596D01*
X003020Y016604D01*
X003054Y016608D01*
X003088Y016608D01*
X003122Y016604D01*
X003156Y016596D01*
X003188Y016584D01*
X003218Y016568D01*
X003247Y016550D01*
X003273Y016528D01*
X003297Y016503D01*
X003317Y016475D01*
X003335Y016445D01*
X003348Y016414D01*
X003358Y016381D01*
X003364Y016347D01*
X003366Y016313D01*
X003364Y016279D01*
X003358Y016245D01*
X003348Y016212D01*
X003335Y016181D01*
X003317Y016151D01*
X003297Y016123D01*
X003273Y016098D01*
X003247Y016076D01*
X003219Y016058D01*
X003188Y016042D01*
X003156Y016030D01*
X003122Y016022D01*
X003088Y016018D01*
X003054Y016018D01*
X003020Y016022D01*
X002986Y016030D01*
X002954Y016042D01*
X002923Y016058D01*
X002895Y016076D01*
X002869Y016098D01*
X002845Y016123D01*
X002825Y016151D01*
X002807Y016181D01*
X002794Y016212D01*
X002784Y016245D01*
X002778Y016279D01*
X002776Y016313D01*
X000500Y015250D02*
X000500Y041250D01*
X075500Y041250D01*
X075492Y000250D01*
X000500Y000250D01*
X000949Y001500D02*
X000951Y001547D01*
X000957Y001593D01*
X000967Y001639D01*
X000980Y001684D01*
X000998Y001727D01*
X001019Y001769D01*
X001043Y001809D01*
X001071Y001846D01*
X001102Y001881D01*
X001136Y001914D01*
X001172Y001943D01*
X001211Y001969D01*
X001252Y001992D01*
X001295Y002011D01*
X001339Y002027D01*
X001384Y002039D01*
X001430Y002047D01*
X001477Y002051D01*
X001523Y002051D01*
X001570Y002047D01*
X001616Y002039D01*
X001661Y002027D01*
X001705Y002011D01*
X001748Y001992D01*
X001789Y001969D01*
X001828Y001943D01*
X001864Y001914D01*
X001898Y001881D01*
X001929Y001846D01*
X001957Y001809D01*
X001981Y001769D01*
X002002Y001727D01*
X002020Y001684D01*
X002033Y001639D01*
X002043Y001593D01*
X002049Y001547D01*
X002051Y001500D01*
X002049Y001453D01*
X002043Y001407D01*
X002033Y001361D01*
X002020Y001316D01*
X002002Y001273D01*
X001981Y001231D01*
X001957Y001191D01*
X001929Y001154D01*
X001898Y001119D01*
X001864Y001086D01*
X001828Y001057D01*
X001789Y001031D01*
X001748Y001008D01*
X001705Y000989D01*
X001661Y000973D01*
X001616Y000961D01*
X001570Y000953D01*
X001523Y000949D01*
X001477Y000949D01*
X001430Y000953D01*
X001384Y000961D01*
X001339Y000973D01*
X001295Y000989D01*
X001252Y001008D01*
X001211Y001031D01*
X001172Y001057D01*
X001136Y001086D01*
X001102Y001119D01*
X001071Y001154D01*
X001043Y001191D01*
X001019Y001231D01*
X000998Y001273D01*
X000980Y001316D01*
X000967Y001361D01*
X000957Y001407D01*
X000951Y001453D01*
X000949Y001500D01*
X000949Y013673D02*
X000951Y013720D01*
X000957Y013766D01*
X000967Y013812D01*
X000980Y013857D01*
X000998Y013900D01*
X001019Y013942D01*
X001043Y013982D01*
X001071Y014019D01*
X001102Y014054D01*
X001136Y014087D01*
X001172Y014116D01*
X001211Y014142D01*
X001252Y014165D01*
X001295Y014184D01*
X001339Y014200D01*
X001384Y014212D01*
X001430Y014220D01*
X001477Y014224D01*
X001523Y014224D01*
X001570Y014220D01*
X001616Y014212D01*
X001661Y014200D01*
X001705Y014184D01*
X001748Y014165D01*
X001789Y014142D01*
X001828Y014116D01*
X001864Y014087D01*
X001898Y014054D01*
X001929Y014019D01*
X001957Y013982D01*
X001981Y013942D01*
X002002Y013900D01*
X002020Y013857D01*
X002033Y013812D01*
X002043Y013766D01*
X002049Y013720D01*
X002051Y013673D01*
X002049Y013626D01*
X002043Y013580D01*
X002033Y013534D01*
X002020Y013489D01*
X002002Y013446D01*
X001981Y013404D01*
X001957Y013364D01*
X001929Y013327D01*
X001898Y013292D01*
X001864Y013259D01*
X001828Y013230D01*
X001789Y013204D01*
X001748Y013181D01*
X001705Y013162D01*
X001661Y013146D01*
X001616Y013134D01*
X001570Y013126D01*
X001523Y013122D01*
X001477Y013122D01*
X001430Y013126D01*
X001384Y013134D01*
X001339Y013146D01*
X001295Y013162D01*
X001252Y013181D01*
X001211Y013204D01*
X001172Y013230D01*
X001136Y013259D01*
X001102Y013292D01*
X001071Y013327D01*
X001043Y013364D01*
X001019Y013404D01*
X000998Y013446D01*
X000980Y013489D01*
X000967Y013534D01*
X000957Y013580D01*
X000951Y013626D01*
X000949Y013673D01*
X006713Y016313D02*
X006715Y016347D01*
X006721Y016381D01*
X006731Y016414D01*
X006744Y016445D01*
X006762Y016475D01*
X006782Y016503D01*
X006806Y016528D01*
X006832Y016550D01*
X006860Y016568D01*
X006891Y016584D01*
X006923Y016596D01*
X006957Y016604D01*
X006991Y016608D01*
X007025Y016608D01*
X007059Y016604D01*
X007093Y016596D01*
X007125Y016584D01*
X007155Y016568D01*
X007184Y016550D01*
X007210Y016528D01*
X007234Y016503D01*
X007254Y016475D01*
X007272Y016445D01*
X007285Y016414D01*
X007295Y016381D01*
X007301Y016347D01*
X007303Y016313D01*
X007301Y016279D01*
X007295Y016245D01*
X007285Y016212D01*
X007272Y016181D01*
X007254Y016151D01*
X007234Y016123D01*
X007210Y016098D01*
X007184Y016076D01*
X007156Y016058D01*
X007125Y016042D01*
X007093Y016030D01*
X007059Y016022D01*
X007025Y016018D01*
X006991Y016018D01*
X006957Y016022D01*
X006923Y016030D01*
X006891Y016042D01*
X006860Y016058D01*
X006832Y016076D01*
X006806Y016098D01*
X006782Y016123D01*
X006762Y016151D01*
X006744Y016181D01*
X006731Y016212D01*
X006721Y016245D01*
X006715Y016279D01*
X006713Y016313D01*
X010276Y016313D02*
X010278Y016347D01*
X010284Y016381D01*
X010294Y016414D01*
X010307Y016445D01*
X010325Y016475D01*
X010345Y016503D01*
X010369Y016528D01*
X010395Y016550D01*
X010423Y016568D01*
X010454Y016584D01*
X010486Y016596D01*
X010520Y016604D01*
X010554Y016608D01*
X010588Y016608D01*
X010622Y016604D01*
X010656Y016596D01*
X010688Y016584D01*
X010718Y016568D01*
X010747Y016550D01*
X010773Y016528D01*
X010797Y016503D01*
X010817Y016475D01*
X010835Y016445D01*
X010848Y016414D01*
X010858Y016381D01*
X010864Y016347D01*
X010866Y016313D01*
X010864Y016279D01*
X010858Y016245D01*
X010848Y016212D01*
X010835Y016181D01*
X010817Y016151D01*
X010797Y016123D01*
X010773Y016098D01*
X010747Y016076D01*
X010719Y016058D01*
X010688Y016042D01*
X010656Y016030D01*
X010622Y016022D01*
X010588Y016018D01*
X010554Y016018D01*
X010520Y016022D01*
X010486Y016030D01*
X010454Y016042D01*
X010423Y016058D01*
X010395Y016076D01*
X010369Y016098D01*
X010345Y016123D01*
X010325Y016151D01*
X010307Y016181D01*
X010294Y016212D01*
X010284Y016245D01*
X010278Y016279D01*
X010276Y016313D01*
X012244Y018281D02*
X012246Y018315D01*
X012252Y018349D01*
X012262Y018382D01*
X012275Y018413D01*
X012293Y018443D01*
X012313Y018471D01*
X012337Y018496D01*
X012363Y018518D01*
X012391Y018536D01*
X012422Y018552D01*
X012454Y018564D01*
X012488Y018572D01*
X012522Y018576D01*
X012556Y018576D01*
X012590Y018572D01*
X012624Y018564D01*
X012656Y018552D01*
X012686Y018536D01*
X012715Y018518D01*
X012741Y018496D01*
X012765Y018471D01*
X012785Y018443D01*
X012803Y018413D01*
X012816Y018382D01*
X012826Y018349D01*
X012832Y018315D01*
X012834Y018281D01*
X012832Y018247D01*
X012826Y018213D01*
X012816Y018180D01*
X012803Y018149D01*
X012785Y018119D01*
X012765Y018091D01*
X012741Y018066D01*
X012715Y018044D01*
X012687Y018026D01*
X012656Y018010D01*
X012624Y017998D01*
X012590Y017990D01*
X012556Y017986D01*
X012522Y017986D01*
X012488Y017990D01*
X012454Y017998D01*
X012422Y018010D01*
X012391Y018026D01*
X012363Y018044D01*
X012337Y018066D01*
X012313Y018091D01*
X012293Y018119D01*
X012275Y018149D01*
X012262Y018180D01*
X012252Y018213D01*
X012246Y018247D01*
X012244Y018281D01*
X014213Y016313D02*
X014215Y016347D01*
X014221Y016381D01*
X014231Y016414D01*
X014244Y016445D01*
X014262Y016475D01*
X014282Y016503D01*
X014306Y016528D01*
X014332Y016550D01*
X014360Y016568D01*
X014391Y016584D01*
X014423Y016596D01*
X014457Y016604D01*
X014491Y016608D01*
X014525Y016608D01*
X014559Y016604D01*
X014593Y016596D01*
X014625Y016584D01*
X014655Y016568D01*
X014684Y016550D01*
X014710Y016528D01*
X014734Y016503D01*
X014754Y016475D01*
X014772Y016445D01*
X014785Y016414D01*
X014795Y016381D01*
X014801Y016347D01*
X014803Y016313D01*
X014801Y016279D01*
X014795Y016245D01*
X014785Y016212D01*
X014772Y016181D01*
X014754Y016151D01*
X014734Y016123D01*
X014710Y016098D01*
X014684Y016076D01*
X014656Y016058D01*
X014625Y016042D01*
X014593Y016030D01*
X014559Y016022D01*
X014525Y016018D01*
X014491Y016018D01*
X014457Y016022D01*
X014423Y016030D01*
X014391Y016042D01*
X014360Y016058D01*
X014332Y016076D01*
X014306Y016098D01*
X014282Y016123D01*
X014262Y016151D01*
X014244Y016181D01*
X014231Y016212D01*
X014221Y016245D01*
X014215Y016279D01*
X014213Y016313D01*
X017776Y016313D02*
X017778Y016347D01*
X017784Y016381D01*
X017794Y016414D01*
X017807Y016445D01*
X017825Y016475D01*
X017845Y016503D01*
X017869Y016528D01*
X017895Y016550D01*
X017923Y016568D01*
X017954Y016584D01*
X017986Y016596D01*
X018020Y016604D01*
X018054Y016608D01*
X018088Y016608D01*
X018122Y016604D01*
X018156Y016596D01*
X018188Y016584D01*
X018218Y016568D01*
X018247Y016550D01*
X018273Y016528D01*
X018297Y016503D01*
X018317Y016475D01*
X018335Y016445D01*
X018348Y016414D01*
X018358Y016381D01*
X018364Y016347D01*
X018366Y016313D01*
X018364Y016279D01*
X018358Y016245D01*
X018348Y016212D01*
X018335Y016181D01*
X018317Y016151D01*
X018297Y016123D01*
X018273Y016098D01*
X018247Y016076D01*
X018219Y016058D01*
X018188Y016042D01*
X018156Y016030D01*
X018122Y016022D01*
X018088Y016018D01*
X018054Y016018D01*
X018020Y016022D01*
X017986Y016030D01*
X017954Y016042D01*
X017923Y016058D01*
X017895Y016076D01*
X017869Y016098D01*
X017845Y016123D01*
X017825Y016151D01*
X017807Y016181D01*
X017794Y016212D01*
X017784Y016245D01*
X017778Y016279D01*
X017776Y016313D01*
X019744Y018281D02*
X019746Y018315D01*
X019752Y018349D01*
X019762Y018382D01*
X019775Y018413D01*
X019793Y018443D01*
X019813Y018471D01*
X019837Y018496D01*
X019863Y018518D01*
X019891Y018536D01*
X019922Y018552D01*
X019954Y018564D01*
X019988Y018572D01*
X020022Y018576D01*
X020056Y018576D01*
X020090Y018572D01*
X020124Y018564D01*
X020156Y018552D01*
X020186Y018536D01*
X020215Y018518D01*
X020241Y018496D01*
X020265Y018471D01*
X020285Y018443D01*
X020303Y018413D01*
X020316Y018382D01*
X020326Y018349D01*
X020332Y018315D01*
X020334Y018281D01*
X020332Y018247D01*
X020326Y018213D01*
X020316Y018180D01*
X020303Y018149D01*
X020285Y018119D01*
X020265Y018091D01*
X020241Y018066D01*
X020215Y018044D01*
X020187Y018026D01*
X020156Y018010D01*
X020124Y017998D01*
X020090Y017990D01*
X020056Y017986D01*
X020022Y017986D01*
X019988Y017990D01*
X019954Y017998D01*
X019922Y018010D01*
X019891Y018026D01*
X019863Y018044D01*
X019837Y018066D01*
X019813Y018091D01*
X019793Y018119D01*
X019775Y018149D01*
X019762Y018180D01*
X019752Y018213D01*
X019746Y018247D01*
X019744Y018281D01*
X021713Y016313D02*
X021715Y016347D01*
X021721Y016381D01*
X021731Y016414D01*
X021744Y016445D01*
X021762Y016475D01*
X021782Y016503D01*
X021806Y016528D01*
X021832Y016550D01*
X021860Y016568D01*
X021891Y016584D01*
X021923Y016596D01*
X021957Y016604D01*
X021991Y016608D01*
X022025Y016608D01*
X022059Y016604D01*
X022093Y016596D01*
X022125Y016584D01*
X022155Y016568D01*
X022184Y016550D01*
X022210Y016528D01*
X022234Y016503D01*
X022254Y016475D01*
X022272Y016445D01*
X022285Y016414D01*
X022295Y016381D01*
X022301Y016347D01*
X022303Y016313D01*
X022301Y016279D01*
X022295Y016245D01*
X022285Y016212D01*
X022272Y016181D01*
X022254Y016151D01*
X022234Y016123D01*
X022210Y016098D01*
X022184Y016076D01*
X022156Y016058D01*
X022125Y016042D01*
X022093Y016030D01*
X022059Y016022D01*
X022025Y016018D01*
X021991Y016018D01*
X021957Y016022D01*
X021923Y016030D01*
X021891Y016042D01*
X021860Y016058D01*
X021832Y016076D01*
X021806Y016098D01*
X021782Y016123D01*
X021762Y016151D01*
X021744Y016181D01*
X021731Y016212D01*
X021721Y016245D01*
X021715Y016279D01*
X021713Y016313D01*
X025276Y016313D02*
X025278Y016347D01*
X025284Y016381D01*
X025294Y016414D01*
X025307Y016445D01*
X025325Y016475D01*
X025345Y016503D01*
X025369Y016528D01*
X025395Y016550D01*
X025423Y016568D01*
X025454Y016584D01*
X025486Y016596D01*
X025520Y016604D01*
X025554Y016608D01*
X025588Y016608D01*
X025622Y016604D01*
X025656Y016596D01*
X025688Y016584D01*
X025718Y016568D01*
X025747Y016550D01*
X025773Y016528D01*
X025797Y016503D01*
X025817Y016475D01*
X025835Y016445D01*
X025848Y016414D01*
X025858Y016381D01*
X025864Y016347D01*
X025866Y016313D01*
X025864Y016279D01*
X025858Y016245D01*
X025848Y016212D01*
X025835Y016181D01*
X025817Y016151D01*
X025797Y016123D01*
X025773Y016098D01*
X025747Y016076D01*
X025719Y016058D01*
X025688Y016042D01*
X025656Y016030D01*
X025622Y016022D01*
X025588Y016018D01*
X025554Y016018D01*
X025520Y016022D01*
X025486Y016030D01*
X025454Y016042D01*
X025423Y016058D01*
X025395Y016076D01*
X025369Y016098D01*
X025345Y016123D01*
X025325Y016151D01*
X025307Y016181D01*
X025294Y016212D01*
X025284Y016245D01*
X025278Y016279D01*
X025276Y016313D01*
X027244Y018281D02*
X027246Y018315D01*
X027252Y018349D01*
X027262Y018382D01*
X027275Y018413D01*
X027293Y018443D01*
X027313Y018471D01*
X027337Y018496D01*
X027363Y018518D01*
X027391Y018536D01*
X027422Y018552D01*
X027454Y018564D01*
X027488Y018572D01*
X027522Y018576D01*
X027556Y018576D01*
X027590Y018572D01*
X027624Y018564D01*
X027656Y018552D01*
X027686Y018536D01*
X027715Y018518D01*
X027741Y018496D01*
X027765Y018471D01*
X027785Y018443D01*
X027803Y018413D01*
X027816Y018382D01*
X027826Y018349D01*
X027832Y018315D01*
X027834Y018281D01*
X027832Y018247D01*
X027826Y018213D01*
X027816Y018180D01*
X027803Y018149D01*
X027785Y018119D01*
X027765Y018091D01*
X027741Y018066D01*
X027715Y018044D01*
X027687Y018026D01*
X027656Y018010D01*
X027624Y017998D01*
X027590Y017990D01*
X027556Y017986D01*
X027522Y017986D01*
X027488Y017990D01*
X027454Y017998D01*
X027422Y018010D01*
X027391Y018026D01*
X027363Y018044D01*
X027337Y018066D01*
X027313Y018091D01*
X027293Y018119D01*
X027275Y018149D01*
X027262Y018180D01*
X027252Y018213D01*
X027246Y018247D01*
X027244Y018281D01*
X029213Y016313D02*
X029215Y016347D01*
X029221Y016381D01*
X029231Y016414D01*
X029244Y016445D01*
X029262Y016475D01*
X029282Y016503D01*
X029306Y016528D01*
X029332Y016550D01*
X029360Y016568D01*
X029391Y016584D01*
X029423Y016596D01*
X029457Y016604D01*
X029491Y016608D01*
X029525Y016608D01*
X029559Y016604D01*
X029593Y016596D01*
X029625Y016584D01*
X029655Y016568D01*
X029684Y016550D01*
X029710Y016528D01*
X029734Y016503D01*
X029754Y016475D01*
X029772Y016445D01*
X029785Y016414D01*
X029795Y016381D01*
X029801Y016347D01*
X029803Y016313D01*
X029801Y016279D01*
X029795Y016245D01*
X029785Y016212D01*
X029772Y016181D01*
X029754Y016151D01*
X029734Y016123D01*
X029710Y016098D01*
X029684Y016076D01*
X029656Y016058D01*
X029625Y016042D01*
X029593Y016030D01*
X029559Y016022D01*
X029525Y016018D01*
X029491Y016018D01*
X029457Y016022D01*
X029423Y016030D01*
X029391Y016042D01*
X029360Y016058D01*
X029332Y016076D01*
X029306Y016098D01*
X029282Y016123D01*
X029262Y016151D01*
X029244Y016181D01*
X029231Y016212D01*
X029221Y016245D01*
X029215Y016279D01*
X029213Y016313D01*
X030445Y013673D02*
X030447Y013720D01*
X030453Y013766D01*
X030463Y013812D01*
X030476Y013857D01*
X030494Y013900D01*
X030515Y013942D01*
X030539Y013982D01*
X030567Y014019D01*
X030598Y014054D01*
X030632Y014087D01*
X030668Y014116D01*
X030707Y014142D01*
X030748Y014165D01*
X030791Y014184D01*
X030835Y014200D01*
X030880Y014212D01*
X030926Y014220D01*
X030973Y014224D01*
X031019Y014224D01*
X031066Y014220D01*
X031112Y014212D01*
X031157Y014200D01*
X031201Y014184D01*
X031244Y014165D01*
X031285Y014142D01*
X031324Y014116D01*
X031360Y014087D01*
X031394Y014054D01*
X031425Y014019D01*
X031453Y013982D01*
X031477Y013942D01*
X031498Y013900D01*
X031516Y013857D01*
X031529Y013812D01*
X031539Y013766D01*
X031545Y013720D01*
X031547Y013673D01*
X031545Y013626D01*
X031539Y013580D01*
X031529Y013534D01*
X031516Y013489D01*
X031498Y013446D01*
X031477Y013404D01*
X031453Y013364D01*
X031425Y013327D01*
X031394Y013292D01*
X031360Y013259D01*
X031324Y013230D01*
X031285Y013204D01*
X031244Y013181D01*
X031201Y013162D01*
X031157Y013146D01*
X031112Y013134D01*
X031066Y013126D01*
X031019Y013122D01*
X030973Y013122D01*
X030926Y013126D01*
X030880Y013134D01*
X030835Y013146D01*
X030791Y013162D01*
X030748Y013181D01*
X030707Y013204D01*
X030668Y013230D01*
X030632Y013259D01*
X030598Y013292D01*
X030567Y013327D01*
X030539Y013364D01*
X030515Y013404D01*
X030494Y013446D01*
X030476Y013489D01*
X030463Y013534D01*
X030453Y013580D01*
X030447Y013626D01*
X030445Y013673D01*
X030445Y001500D02*
X030447Y001547D01*
X030453Y001593D01*
X030463Y001639D01*
X030476Y001684D01*
X030494Y001727D01*
X030515Y001769D01*
X030539Y001809D01*
X030567Y001846D01*
X030598Y001881D01*
X030632Y001914D01*
X030668Y001943D01*
X030707Y001969D01*
X030748Y001992D01*
X030791Y002011D01*
X030835Y002027D01*
X030880Y002039D01*
X030926Y002047D01*
X030973Y002051D01*
X031019Y002051D01*
X031066Y002047D01*
X031112Y002039D01*
X031157Y002027D01*
X031201Y002011D01*
X031244Y001992D01*
X031285Y001969D01*
X031324Y001943D01*
X031360Y001914D01*
X031394Y001881D01*
X031425Y001846D01*
X031453Y001809D01*
X031477Y001769D01*
X031498Y001727D01*
X031516Y001684D01*
X031529Y001639D01*
X031539Y001593D01*
X031545Y001547D01*
X031547Y001500D01*
X031545Y001453D01*
X031539Y001407D01*
X031529Y001361D01*
X031516Y001316D01*
X031498Y001273D01*
X031477Y001231D01*
X031453Y001191D01*
X031425Y001154D01*
X031394Y001119D01*
X031360Y001086D01*
X031324Y001057D01*
X031285Y001031D01*
X031244Y001008D01*
X031201Y000989D01*
X031157Y000973D01*
X031112Y000961D01*
X031066Y000953D01*
X031019Y000949D01*
X030973Y000949D01*
X030926Y000953D01*
X030880Y000961D01*
X030835Y000973D01*
X030791Y000989D01*
X030748Y001008D01*
X030707Y001031D01*
X030668Y001057D01*
X030632Y001086D01*
X030598Y001119D01*
X030567Y001154D01*
X030539Y001191D01*
X030515Y001231D01*
X030494Y001273D01*
X030476Y001316D01*
X030463Y001361D01*
X030453Y001407D01*
X030447Y001453D01*
X030445Y001500D01*
X074008Y001500D02*
X074010Y001544D01*
X074016Y001588D01*
X074026Y001631D01*
X074039Y001673D01*
X074057Y001713D01*
X074078Y001752D01*
X074102Y001789D01*
X074129Y001824D01*
X074160Y001856D01*
X074193Y001885D01*
X074229Y001911D01*
X074267Y001933D01*
X074307Y001952D01*
X074348Y001968D01*
X074391Y001980D01*
X074434Y001988D01*
X074478Y001992D01*
X074522Y001992D01*
X074566Y001988D01*
X074609Y001980D01*
X074652Y001968D01*
X074693Y001952D01*
X074733Y001933D01*
X074771Y001911D01*
X074807Y001885D01*
X074840Y001856D01*
X074871Y001824D01*
X074898Y001789D01*
X074922Y001752D01*
X074943Y001713D01*
X074961Y001673D01*
X074974Y001631D01*
X074984Y001588D01*
X074990Y001544D01*
X074992Y001500D01*
X074990Y001456D01*
X074984Y001412D01*
X074974Y001369D01*
X074961Y001327D01*
X074943Y001287D01*
X074922Y001248D01*
X074898Y001211D01*
X074871Y001176D01*
X074840Y001144D01*
X074807Y001115D01*
X074771Y001089D01*
X074733Y001067D01*
X074693Y001048D01*
X074652Y001032D01*
X074609Y001020D01*
X074566Y001012D01*
X074522Y001008D01*
X074478Y001008D01*
X074434Y001012D01*
X074391Y001020D01*
X074348Y001032D01*
X074307Y001048D01*
X074267Y001067D01*
X074229Y001089D01*
X074193Y001115D01*
X074160Y001144D01*
X074129Y001176D01*
X074102Y001211D01*
X074078Y001248D01*
X074057Y001287D01*
X074039Y001327D01*
X074026Y001369D01*
X074016Y001412D01*
X074010Y001456D01*
X074008Y001500D01*
D11*
X077244Y014780D02*
X077457Y014994D01*
X077457Y015421D01*
X077675Y015100D02*
X078102Y015100D01*
X078319Y015314D02*
X078319Y014887D01*
X078426Y014780D01*
X078639Y014780D01*
X078746Y014887D01*
X078964Y014887D02*
X079070Y014780D01*
X079284Y014780D01*
X079391Y014887D01*
X079391Y015421D01*
X079608Y015421D02*
X080035Y015421D01*
X079822Y015421D02*
X079822Y014780D01*
X078964Y014887D02*
X078964Y015421D01*
X078746Y015314D02*
X078639Y015421D01*
X078426Y015421D01*
X078319Y015314D01*
X077244Y014780D02*
X077030Y014994D01*
X077030Y015421D01*
D12*
X064060Y026410D02*
X063520Y026410D01*
X063520Y028650D01*
X064060Y028650D01*
X064060Y026410D01*
X064620Y029980D02*
X062380Y029980D01*
X062380Y030520D01*
X064620Y030520D01*
X064620Y029980D01*
M02*
