%
M48
M72
T01C0.0236
T02C0.0276
T03C0.0315
T04C0.0320
T05C0.0360
T06C0.0394
T07C0.0400
T08C0.0433
T09C0.0440
T10C0.0500
T11C0.0591
T12C0.0630
T13C0.0748
T14C0.0787
T15C0.0827
T16C0.0984
T17C0.1102
T18C0.1260
%
T01
X16000Y23750
T02
X49000Y20850
X50000Y20850
X51000Y20850
X56500Y25650
X57500Y25639
X58500Y25650
X58500Y20850
X57500Y20850
X56500Y20850
X49000Y25650
X50000Y25639
X51000Y25650
T03
X23000Y36250
X18650Y13673
X17650Y13673
X16650Y13673
X15650Y13673
X14650Y13673
X13650Y13673
X12650Y13673
X11650Y13673
X10650Y13673
X9650Y13673
X8650Y13673
X7650Y13673
X6650Y13673
X5650Y13673
X4650Y13673
X3650Y13673
T04
X72500Y12250
X71500Y11250
X73500Y11250
X75000Y7750
X75000Y3750
X73000Y3750
X72000Y3750
X4000Y20250
X3000Y20250
X4000Y24250
X3000Y24250
X3000Y25250
X4000Y25250
X1500Y25250
X1500Y26250
X2500Y28250
X2500Y29250
X2500Y30250
X1500Y30250
X1500Y31250
X2500Y31250
X2500Y32250
X2500Y33250
X2500Y34250
X1500Y34250
X1500Y33250
X2500Y35250
X5500Y36250
X6500Y36250
X7500Y36250
X7500Y35250
X6500Y35250
X6500Y34250
X7500Y34250
X7500Y33250
X6500Y33250
X6500Y32250
X6500Y31250
X6500Y30250
X7500Y30250
X7500Y29250
X6500Y29250
X6500Y28250
X7500Y28250
X7500Y27250
X10500Y27250
X10500Y28250
X10500Y29250
X10500Y30250
X10500Y31250
X9500Y31250
X10500Y33250
X10500Y34250
X11500Y34250
X12500Y34250
X13500Y34250
X14500Y34250
X15500Y33250
X16500Y33250
X17500Y33250
X18500Y33250
X19500Y33250
X20500Y33250
X21500Y33250
X21500Y34250
X22500Y34250
X23500Y34250
X24500Y34250
X24500Y33250
X23500Y33250
X22500Y33250
X25500Y33250
X26500Y33250
X27500Y33250
X28500Y33250
X29500Y33250
X30500Y33250
X31500Y33250
X32500Y33250
X33500Y33250
X34500Y33250
X36500Y31250
X37500Y31250
X38500Y31250
X39500Y31250
X40500Y32250
X41500Y32250
X42500Y32250
X42500Y31250
X41500Y31250
X43500Y31250
X44500Y31250
X44500Y32250
X43500Y32250
X45500Y32250
X47500Y32250
X48500Y32250
X50000Y32250
X50000Y31250
X51000Y31250
X52500Y32250
X53500Y32250
X55000Y32250
X56000Y32250
X57500Y32250
X57500Y31250
X58500Y31250
X60000Y32250
X61000Y32250
X61500Y25750
X61500Y20750
X64500Y23250
X65500Y23250
X42500Y16250
X41500Y16250
X40500Y16250
X39500Y16250
X38500Y16250
X37500Y16250
X36500Y16250
X35500Y16250
X34500Y16250
X32500Y16250
X31500Y16250
X16750Y20250
X15750Y20250
X14500Y20250
X13500Y20250
X11500Y20250
X10500Y20250
X3750Y12000
X4750Y12000
X15750Y16250
X16750Y16250
X38500Y9000
X39500Y9000
X40500Y9000
X41500Y9000
X42500Y9000
X43500Y9000
X44500Y9000
X47500Y7750
X44500Y6000
X43500Y6000
X42500Y6000
X41500Y6000
X40500Y6000
X39500Y6000
X38500Y6000
X38500Y5000
X38500Y4000
X18000Y5250
X18000Y9250
X65500Y3750
X64500Y3750
X62500Y3750
X61500Y3750
X60500Y3750
X58000Y3750
X57000Y3750
X55000Y3750
X50500Y3750
X49500Y3750
X47500Y3750
X55000Y7750
X60500Y7750
X61500Y7750
X62500Y7750
X61250Y8500
X60750Y9250
X61750Y9250
X61750Y11250
X61250Y12000
X60750Y11250
X45500Y23250
X44500Y23250
X43500Y23250
X42500Y23250
X41500Y23250
X40500Y23250
X39500Y24250
X38500Y24250
X37500Y24250
X36500Y24250
X37500Y23250
X38500Y23250
X34500Y22250
X33500Y22250
X32500Y22250
X31500Y22250
X31500Y20250
X32500Y20250
X34500Y19250
X35500Y19250
X36500Y19250
X37500Y19250
X38500Y19250
X38500Y20250
X37500Y20250
X36500Y20250
X35500Y20250
X39500Y20250
X40500Y20250
X41500Y20250
X42500Y20250
X41500Y19250
X40500Y19250
X39500Y19250
X42500Y17250
X34500Y26250
X33500Y26250
X32500Y26250
X31500Y26250
X31500Y27250
X32500Y27250
X33500Y27250
X34500Y27250
X36500Y27250
X37500Y27250
X38500Y27250
X39500Y27250
X40500Y27250
X41500Y27250
X42500Y27250
X43500Y27250
X44500Y27250
X45500Y27250
X45500Y28250
X44500Y28250
X43500Y28250
X42500Y28250
X41500Y28250
X40500Y28250
X39500Y28250
X38500Y28250
X37500Y28250
X36500Y28250
X40500Y29250
X45500Y29250
X45500Y36250
X44500Y36250
X43500Y36250
X43500Y37250
X42500Y37250
X42500Y36250
X41500Y36250
X40500Y36250
X41500Y38250
X42500Y38250
X45750Y39250
X46750Y39250
X49000Y38250
X50000Y38250
X50000Y37250
X51000Y37250
X50000Y36250
X48500Y36250
X47500Y36250
X52500Y36250
X53500Y36250
X55000Y36250
X56000Y36250
X57500Y36250
X57500Y37250
X58500Y37250
X60000Y36250
X61000Y36250
X63500Y36250
X63500Y37250
X65500Y38250
X66500Y38250
X67500Y38250
X68500Y38250
X67500Y37250
X67500Y36250
X67500Y33250
X63500Y33250
X57500Y38250
X56500Y38250
X54450Y39250
X53050Y39250
X60550Y39250
X61950Y39250
X23950Y36250
X22050Y36250
X20000Y37750
X19000Y37750
X18500Y39250
X19500Y39250
X20500Y39250
X21500Y39250
X17500Y39250
X16500Y39250
X15500Y39250
X14500Y38250
X13500Y38250
X12500Y38250
X11500Y38250
X10500Y38250
X10500Y39250
X11500Y39250
X11500Y37250
X10500Y37250
X10500Y36250
X11500Y36250
X11500Y35250
X10500Y35250
X7500Y37250
X6500Y37250
X6500Y38250
X7500Y38250
X7500Y39250
X6500Y39250
X6500Y40250
X2500Y40250
X2500Y39250
X2500Y38250
X1500Y38250
X1500Y39250
X2500Y37250
X15500Y37250
X15500Y36250
X15500Y35250
X15500Y27250
X16500Y27250
X17500Y27250
X18500Y27250
X19500Y27250
X20500Y27250
X21500Y27250
X22500Y27250
X23500Y27250
X24500Y27250
X25500Y27250
X26500Y27250
X26500Y26250
X25500Y26250
X24500Y26250
X27500Y26250
X27500Y27250
X28500Y27250
X29500Y27250
X30500Y27250
X14500Y25250
X14500Y24250
X13500Y24250
X13500Y25250
X11500Y25250
X10500Y25250
X10500Y24250
X11500Y24250
T05
X46500Y19000
X46500Y20000
X54000Y20000
X54000Y19000
T06
X69500Y13250
X68500Y13250
X68500Y12250
X69500Y12250
X69500Y11250
X68500Y11250
X68500Y10250
X69500Y10250
X69500Y9250
X68500Y9250
X68500Y8250
X69500Y8250
X69500Y7250
X68500Y7250
X68500Y6250
X69500Y6250
X69500Y5250
X68500Y5250
X68500Y4250
X69500Y4250
X69500Y3250
X68500Y3250
X68500Y2250
X69500Y2250
X65016Y18203
X66984Y19502
X65016Y20683
X28500Y23250
X27500Y23250
X27500Y24250
X28500Y24250
X26500Y24250
X25500Y24250
X24500Y24250
X23500Y24250
X22500Y24250
X22500Y23250
X23500Y23250
X24500Y23250
X25500Y23250
X26500Y23250
X21500Y23250
X20500Y23250
X19500Y23250
X18500Y23250
X18500Y24250
X19500Y24250
X20500Y24250
X21500Y24250
X17500Y24250
X17500Y23250
X29500Y35250
X28500Y35250
X27500Y35250
X27500Y36250
X28500Y36250
X29500Y36250
T07
X47500Y27750
X47500Y28750
X47500Y29750
X50000Y29750
X50000Y28750
X50000Y27750
X52500Y27750
X52500Y28750
X52500Y29750
X55000Y29750
X55000Y28750
X55000Y27750
X57500Y27750
X57500Y28750
X57500Y29750
X60000Y29750
X60000Y28750
X60000Y27750
X71000Y33250
X73000Y33250
X73000Y37250
X71000Y37250
X66335Y39675
X65670Y39675
X65005Y39675
X64335Y39675
X63665Y39675
X58500Y39750
X57500Y39750
X56500Y39750
X51000Y39750
X50000Y39750
X49000Y39750
X43500Y39750
X42500Y39750
X41500Y39750
T08
X65984Y8494
X65000Y8494
X64016Y8494
X64016Y7494
X65000Y7494
X65984Y7494
X58484Y8494
X57500Y8494
X56516Y8494
X50984Y8494
X50000Y8494
X49016Y8494
T09
X43500Y12250
X41500Y12250
X41500Y10250
X43500Y10250
X36000Y10250
X34000Y10250
X34000Y12250
X36000Y12250
X68500Y33250
X68500Y37250
X43500Y4750
X41500Y4750
X41500Y2750
X43500Y2750
X36000Y2750
X34000Y2750
X34000Y4750
X36000Y4750
T10
X63790Y27525
X63500Y30250
T11
X59508Y16313
X57539Y16313
X55571Y16313
X55531Y18281
X56594Y18281
X57539Y18281
X58484Y18281
X59547Y18281
X52047Y18281
X50984Y18281
X50039Y18281
X49094Y18281
X48031Y18281
X48071Y16313
X50039Y16313
X52008Y16313
X29547Y18281
X28484Y18281
X27539Y18281
X26594Y18281
X25531Y18281
X22047Y18281
X20984Y18281
X20039Y18281
X19094Y18281
X18031Y18281
X14547Y18281
X13484Y18281
X12539Y18281
X11594Y18281
X10531Y18281
X10571Y16313
X12539Y16313
X14508Y16313
X18071Y16313
X20039Y16313
X22008Y16313
X25571Y16313
X27539Y16313
X29508Y16313
X7008Y16313
X5039Y16313
X3071Y16313
X3031Y18281
X4094Y18281
X5039Y18281
X5984Y18281
X7047Y18281
T12
X73500Y16250
X71500Y16250
X72500Y21250
X72500Y23250
X72500Y25250
T13
X54605Y23250
X52895Y23250
X47105Y23250
X60395Y23250
T14
X64250Y34750
X66750Y34750
T15
X66772Y11250
X63228Y11250
X59272Y11250
X55728Y11250
X51772Y11250
X48228Y11250
T16
X74500Y13750
X74500Y1500
T17
X1500Y1500
X1500Y13673
X30996Y13673
X30996Y1500
T18
X69250Y24000
X38000Y39750
X6750Y24000
M30
